<mxfile host="app.diagrams.net" modified="2023-04-20T07:40:17.091Z" agent="Mozilla/5.0 (Windows NT 10.0; Win64; x64; rv:109.0) Gecko/20100101 Firefox/112.0" etag="D00JLTw1QzyILBqCyths" version="21.2.1" type="github">
  <diagram name="Page-1" id="QxTdmoCRKcCL7kcKfaHW">
    <mxGraphModel dx="3475" dy="2413" grid="1" gridSize="10" guides="1" tooltips="1" connect="1" arrows="1" fold="1" page="1" pageScale="1" pageWidth="850" pageHeight="1100" math="0" shadow="0">
      <root>
        <mxCell id="0" />
        <mxCell id="1" parent="0" />
        <mxCell id="LkaJZbjGnA7sSVF9E5AU-1" value="" style="rounded=1;whiteSpace=wrap;html=1;" parent="1" vertex="1">
          <mxGeometry x="171" y="-760" width="490" height="710" as="geometry" />
        </mxCell>
        <mxCell id="LkaJZbjGnA7sSVF9E5AU-2" value="" style="rounded=0;whiteSpace=wrap;html=1;dashed=1;dashPattern=8 8;strokeColor=#ff0000;strokeWidth=2;" parent="1" vertex="1">
          <mxGeometry x="261" y="-720" width="330" height="530" as="geometry" />
        </mxCell>
        <mxCell id="LkaJZbjGnA7sSVF9E5AU-6" value="&lt;div&gt;Topic A&lt;/div&gt;&lt;div&gt;Partition 0&lt;br&gt;&lt;/div&gt;" style="rounded=0;whiteSpace=wrap;html=1;" parent="1" vertex="1">
          <mxGeometry x="281" y="-680" width="77" height="40" as="geometry" />
        </mxCell>
        <mxCell id="LkaJZbjGnA7sSVF9E5AU-10" value="" style="endArrow=none;dashed=1;html=1;dashPattern=1 3;strokeWidth=2;rounded=0;" parent="1" edge="1">
          <mxGeometry width="50" height="50" relative="1" as="geometry">
            <mxPoint x="415.76" y="-370" as="sourcePoint" />
            <mxPoint x="415.76" y="-420" as="targetPoint" />
          </mxGeometry>
        </mxCell>
        <mxCell id="LkaJZbjGnA7sSVF9E5AU-11" value="Kafka Cluster" style="text;html=1;strokeColor=none;fillColor=none;align=center;verticalAlign=middle;whiteSpace=wrap;rounded=0;" parent="1" vertex="1">
          <mxGeometry x="379.5" y="-760" width="75" height="40" as="geometry" />
        </mxCell>
        <mxCell id="LkaJZbjGnA7sSVF9E5AU-14" style="edgeStyle=orthogonalEdgeStyle;rounded=0;orthogonalLoop=1;jettySize=auto;html=1;entryX=0.5;entryY=1;entryDx=0;entryDy=0;" parent="1" source="LkaJZbjGnA7sSVF9E5AU-12" target="LkaJZbjGnA7sSVF9E5AU-2" edge="1">
          <mxGeometry relative="1" as="geometry" />
        </mxCell>
        <mxCell id="LkaJZbjGnA7sSVF9E5AU-12" value="Zookeeper" style="shape=hexagon;perimeter=hexagonPerimeter2;whiteSpace=wrap;html=1;fixedSize=1;" parent="1" vertex="1">
          <mxGeometry x="358.5" y="-130" width="135" height="60" as="geometry" />
        </mxCell>
        <mxCell id="LkaJZbjGnA7sSVF9E5AU-15" value="&lt;b&gt;&lt;font style=&quot;font-size: 13px;&quot;&gt;Kafka Ecosystem&lt;/font&gt;&lt;/b&gt;" style="text;html=1;align=center;verticalAlign=middle;resizable=0;points=[];autosize=1;strokeColor=none;fillColor=none;" parent="1" vertex="1">
          <mxGeometry x="361" y="-790" width="130" height="30" as="geometry" />
        </mxCell>
        <mxCell id="LkaJZbjGnA7sSVF9E5AU-17" value="&lt;div&gt;Topic A&lt;/div&gt;&lt;div&gt;Partition 0&lt;br&gt;&lt;/div&gt;" style="rounded=0;whiteSpace=wrap;html=1;" parent="1" vertex="1">
          <mxGeometry x="376" y="-680" width="77" height="40" as="geometry" />
        </mxCell>
        <mxCell id="LkaJZbjGnA7sSVF9E5AU-18" value="&lt;div&gt;Topic A&lt;/div&gt;&lt;div&gt;Partition N&lt;br&gt;&lt;/div&gt;" style="rounded=0;whiteSpace=wrap;html=1;" parent="1" vertex="1">
          <mxGeometry x="491" y="-680" width="77" height="40" as="geometry" />
        </mxCell>
        <mxCell id="LkaJZbjGnA7sSVF9E5AU-20" value="" style="endArrow=none;dashed=1;html=1;rounded=0;" parent="1" edge="1">
          <mxGeometry width="50" height="50" relative="1" as="geometry">
            <mxPoint x="461" y="-660.5" as="sourcePoint" />
            <mxPoint x="491" y="-660.5" as="targetPoint" />
          </mxGeometry>
        </mxCell>
        <mxCell id="LkaJZbjGnA7sSVF9E5AU-21" value="Broker 1" style="text;html=1;strokeColor=none;fillColor=none;align=center;verticalAlign=middle;whiteSpace=wrap;rounded=0;" parent="1" vertex="1">
          <mxGeometry x="393" y="-720" width="60" height="30" as="geometry" />
        </mxCell>
        <mxCell id="LkaJZbjGnA7sSVF9E5AU-22" value="&lt;div&gt;Topic B&lt;br&gt;&lt;/div&gt;&lt;div&gt;Partition 0&lt;br&gt;&lt;/div&gt;" style="rounded=0;whiteSpace=wrap;html=1;" parent="1" vertex="1">
          <mxGeometry x="281" y="-630" width="77" height="40" as="geometry" />
        </mxCell>
        <mxCell id="LkaJZbjGnA7sSVF9E5AU-23" value="&lt;div&gt;Topic B&lt;br&gt;&lt;/div&gt;&lt;div&gt;Partition 1&lt;br&gt;&lt;/div&gt;" style="rounded=0;whiteSpace=wrap;html=1;" parent="1" vertex="1">
          <mxGeometry x="376" y="-630" width="77" height="40" as="geometry" />
        </mxCell>
        <mxCell id="LkaJZbjGnA7sSVF9E5AU-25" value="&lt;div&gt;Topic B&lt;br&gt;&lt;/div&gt;&lt;div&gt;Partition N&lt;br&gt;&lt;/div&gt;" style="rounded=0;whiteSpace=wrap;html=1;" parent="1" vertex="1">
          <mxGeometry x="491" y="-630" width="77" height="40" as="geometry" />
        </mxCell>
        <mxCell id="LkaJZbjGnA7sSVF9E5AU-31" value="" style="endArrow=none;dashed=1;html=1;rounded=0;" parent="1" edge="1">
          <mxGeometry width="50" height="50" relative="1" as="geometry">
            <mxPoint x="483.5" y="-610.11" as="sourcePoint" />
            <mxPoint x="463.5" y="-610.11" as="targetPoint" />
          </mxGeometry>
        </mxCell>
        <mxCell id="LkaJZbjGnA7sSVF9E5AU-32" value="" style="rounded=0;whiteSpace=wrap;html=1;opacity=30;strokeColor=#1A1A1A;dashed=1;strokeWidth=3;" parent="1" vertex="1">
          <mxGeometry x="278.5" y="-690" width="295" height="120" as="geometry" />
        </mxCell>
        <mxCell id="LkaJZbjGnA7sSVF9E5AU-35" value="&lt;div&gt;Topic A&lt;/div&gt;&lt;div&gt;Partition 0&lt;br&gt;&lt;/div&gt;" style="rounded=0;whiteSpace=wrap;html=1;" parent="1" vertex="1">
          <mxGeometry x="281.5" y="-530" width="77" height="40" as="geometry" />
        </mxCell>
        <mxCell id="LkaJZbjGnA7sSVF9E5AU-36" value="&lt;div&gt;Topic B&lt;br&gt;&lt;/div&gt;&lt;div&gt;Partition 0&lt;br&gt;&lt;/div&gt;" style="rounded=0;whiteSpace=wrap;html=1;" parent="1" vertex="1">
          <mxGeometry x="278.5" y="-480" width="77" height="40" as="geometry" />
        </mxCell>
        <mxCell id="LkaJZbjGnA7sSVF9E5AU-37" value="&lt;div&gt;Topic A&lt;br&gt;&lt;/div&gt;&lt;div&gt;Partition 1&lt;br&gt;&lt;/div&gt;" style="rounded=0;whiteSpace=wrap;html=1;" parent="1" vertex="1">
          <mxGeometry x="377.5" y="-530" width="77" height="40" as="geometry" />
        </mxCell>
        <mxCell id="LkaJZbjGnA7sSVF9E5AU-39" value="&lt;div&gt;Topic A&lt;br&gt;&lt;/div&gt;&lt;div&gt;Partition N&lt;br&gt;&lt;/div&gt;" style="rounded=0;whiteSpace=wrap;html=1;" parent="1" vertex="1">
          <mxGeometry x="491" y="-530" width="77" height="40" as="geometry" />
        </mxCell>
        <mxCell id="LkaJZbjGnA7sSVF9E5AU-40" value="&lt;div&gt;Topic B&lt;br&gt;&lt;/div&gt;&lt;div&gt;Partition 1&lt;br&gt;&lt;/div&gt;" style="rounded=0;whiteSpace=wrap;html=1;" parent="1" vertex="1">
          <mxGeometry x="376" y="-480" width="77" height="40" as="geometry" />
        </mxCell>
        <mxCell id="LkaJZbjGnA7sSVF9E5AU-41" value="&lt;div&gt;Topic B&lt;br&gt;&lt;/div&gt;&lt;div&gt;Partition N&lt;br&gt;&lt;/div&gt;" style="rounded=0;whiteSpace=wrap;html=1;" parent="1" vertex="1">
          <mxGeometry x="491" y="-480" width="77" height="40" as="geometry" />
        </mxCell>
        <mxCell id="LkaJZbjGnA7sSVF9E5AU-42" value="" style="endArrow=none;dashed=1;html=1;rounded=0;" parent="1" edge="1">
          <mxGeometry width="50" height="50" relative="1" as="geometry">
            <mxPoint x="481" y="-510.2" as="sourcePoint" />
            <mxPoint x="461" y="-510.2" as="targetPoint" />
          </mxGeometry>
        </mxCell>
        <mxCell id="LkaJZbjGnA7sSVF9E5AU-44" value="Broker 2" style="text;html=1;strokeColor=none;fillColor=none;align=center;verticalAlign=middle;whiteSpace=wrap;rounded=0;" parent="1" vertex="1">
          <mxGeometry x="386" y="-570" width="60" height="30" as="geometry" />
        </mxCell>
        <mxCell id="LkaJZbjGnA7sSVF9E5AU-45" value="" style="endArrow=none;dashed=1;html=1;rounded=0;" parent="1" edge="1">
          <mxGeometry width="50" height="50" relative="1" as="geometry">
            <mxPoint x="483.5" y="-460.05" as="sourcePoint" />
            <mxPoint x="463.5" y="-460.11999999999995" as="targetPoint" />
          </mxGeometry>
        </mxCell>
        <mxCell id="LkaJZbjGnA7sSVF9E5AU-46" value="&lt;div&gt;Topic A&lt;/div&gt;&lt;div&gt;Partition 0&lt;br&gt;&lt;/div&gt;" style="rounded=0;whiteSpace=wrap;html=1;" parent="1" vertex="1">
          <mxGeometry x="281" y="-330" width="77" height="40" as="geometry" />
        </mxCell>
        <mxCell id="LkaJZbjGnA7sSVF9E5AU-47" value="&lt;div&gt;Topic A&lt;br&gt;&lt;/div&gt;&lt;div&gt;Partition 1&lt;br&gt;&lt;/div&gt;" style="rounded=0;whiteSpace=wrap;html=1;" parent="1" vertex="1">
          <mxGeometry x="376" y="-330" width="77" height="40" as="geometry" />
        </mxCell>
        <mxCell id="LkaJZbjGnA7sSVF9E5AU-48" value="&lt;div&gt;Topic A&lt;br&gt;&lt;/div&gt;&lt;div&gt;Partition N&lt;br&gt;&lt;/div&gt;" style="rounded=0;whiteSpace=wrap;html=1;" parent="1" vertex="1">
          <mxGeometry x="491" y="-330" width="77" height="40" as="geometry" />
        </mxCell>
        <mxCell id="LkaJZbjGnA7sSVF9E5AU-49" value="" style="endArrow=none;dashed=1;html=1;rounded=0;" parent="1" edge="1">
          <mxGeometry width="50" height="50" relative="1" as="geometry">
            <mxPoint x="483.5" y="-310.20000000000005" as="sourcePoint" />
            <mxPoint x="463.5" y="-310.20000000000005" as="targetPoint" />
          </mxGeometry>
        </mxCell>
        <mxCell id="LkaJZbjGnA7sSVF9E5AU-50" value="&lt;div&gt;Topic B&lt;br&gt;&lt;/div&gt;&lt;div&gt;Partition 0&lt;br&gt;&lt;/div&gt;" style="rounded=0;whiteSpace=wrap;html=1;" parent="1" vertex="1">
          <mxGeometry x="278.5" y="-270" width="77" height="40" as="geometry" />
        </mxCell>
        <mxCell id="LkaJZbjGnA7sSVF9E5AU-51" value="&lt;div&gt;Topic B&lt;br&gt;&lt;/div&gt;&lt;div&gt;Partition 1&lt;br&gt;&lt;/div&gt;" style="rounded=0;whiteSpace=wrap;html=1;" parent="1" vertex="1">
          <mxGeometry x="377.5" y="-270" width="77" height="40" as="geometry" />
        </mxCell>
        <mxCell id="LkaJZbjGnA7sSVF9E5AU-52" value="&lt;div&gt;Topic B&lt;br&gt;&lt;/div&gt;&lt;div&gt;Partition N&lt;br&gt;&lt;/div&gt;" style="rounded=0;whiteSpace=wrap;html=1;" parent="1" vertex="1">
          <mxGeometry x="491" y="-270" width="77" height="40" as="geometry" />
        </mxCell>
        <mxCell id="LkaJZbjGnA7sSVF9E5AU-53" value="" style="endArrow=none;dashed=1;html=1;rounded=0;" parent="1" edge="1">
          <mxGeometry width="50" height="50" relative="1" as="geometry">
            <mxPoint x="483.5" y="-250.24" as="sourcePoint" />
            <mxPoint x="463.5" y="-250.24" as="targetPoint" />
          </mxGeometry>
        </mxCell>
        <mxCell id="LkaJZbjGnA7sSVF9E5AU-57" value="Broker N" style="text;html=1;strokeColor=none;fillColor=none;align=center;verticalAlign=middle;whiteSpace=wrap;rounded=0;" parent="1" vertex="1">
          <mxGeometry x="384.5" y="-365" width="60" height="30" as="geometry" />
        </mxCell>
        <mxCell id="LkaJZbjGnA7sSVF9E5AU-58" value="" style="rounded=0;whiteSpace=wrap;html=1;opacity=30;strokeColor=#1A1A1A;dashed=1;strokeWidth=3;" parent="1" vertex="1">
          <mxGeometry x="278.5" y="-340" width="295" height="130" as="geometry" />
        </mxCell>
        <mxCell id="LkaJZbjGnA7sSVF9E5AU-59" value="" style="rounded=0;whiteSpace=wrap;html=1;opacity=30;strokeColor=#1A1A1A;dashed=1;strokeWidth=3;" parent="1" vertex="1">
          <mxGeometry x="278.5" y="-540" width="295" height="110" as="geometry" />
        </mxCell>
        <mxCell id="LkaJZbjGnA7sSVF9E5AU-248" style="edgeStyle=orthogonalEdgeStyle;rounded=0;orthogonalLoop=1;jettySize=auto;html=1;entryX=0.25;entryY=0;entryDx=0;entryDy=0;" parent="1" source="LkaJZbjGnA7sSVF9E5AU-63" target="LkaJZbjGnA7sSVF9E5AU-1" edge="1">
          <mxGeometry relative="1" as="geometry">
            <Array as="points">
              <mxPoint x="-126" y="-830" />
              <mxPoint x="294" y="-830" />
            </Array>
          </mxGeometry>
        </mxCell>
        <mxCell id="LkaJZbjGnA7sSVF9E5AU-63" value="" style="rounded=1;whiteSpace=wrap;html=1;fillColor=#eeeeee;strokeColor=#36393d;" parent="1" vertex="1">
          <mxGeometry x="-334" y="-987.5" width="415" height="117.5" as="geometry" />
        </mxCell>
        <mxCell id="LkaJZbjGnA7sSVF9E5AU-249" style="edgeStyle=orthogonalEdgeStyle;rounded=0;orthogonalLoop=1;jettySize=auto;html=1;entryX=0.535;entryY=-0.058;entryDx=0;entryDy=0;entryPerimeter=0;" parent="1" source="LkaJZbjGnA7sSVF9E5AU-64" target="LkaJZbjGnA7sSVF9E5AU-15" edge="1">
          <mxGeometry relative="1" as="geometry" />
        </mxCell>
        <mxCell id="LkaJZbjGnA7sSVF9E5AU-64" value="" style="rounded=1;whiteSpace=wrap;html=1;fillColor=#eeeeee;strokeColor=#36393d;" parent="1" vertex="1">
          <mxGeometry x="221" y="-980" width="420" height="110" as="geometry" />
        </mxCell>
        <mxCell id="LkaJZbjGnA7sSVF9E5AU-65" value="" style="rounded=1;whiteSpace=wrap;html=1;fillColor=#eeeeee;strokeColor=#36393d;opacity=90;" parent="1" vertex="1">
          <mxGeometry x="851" y="-760" width="490" height="710" as="geometry" />
        </mxCell>
        <mxCell id="LkaJZbjGnA7sSVF9E5AU-67" value="&lt;font style=&quot;font-size: 14px;&quot;&gt;&lt;b&gt;Operation Service&lt;br&gt;&lt;/b&gt;&lt;/font&gt;" style="text;html=1;align=center;verticalAlign=middle;resizable=0;points=[];autosize=1;strokeColor=none;fillColor=none;" parent="1" vertex="1">
          <mxGeometry x="1026" y="-800" width="140" height="30" as="geometry" />
        </mxCell>
        <mxCell id="LkaJZbjGnA7sSVF9E5AU-69" value="Text" style="text;html=1;strokeColor=none;fillColor=none;align=center;verticalAlign=middle;whiteSpace=wrap;rounded=0;" parent="1" vertex="1">
          <mxGeometry x="521" y="-420" width="60" height="30" as="geometry" />
        </mxCell>
        <mxCell id="LkaJZbjGnA7sSVF9E5AU-70" value="Text" style="text;html=1;strokeColor=none;fillColor=none;align=center;verticalAlign=middle;whiteSpace=wrap;rounded=0;" parent="1" vertex="1">
          <mxGeometry x="521" y="-420" width="60" height="30" as="geometry" />
        </mxCell>
        <mxCell id="LkaJZbjGnA7sSVF9E5AU-71" value="&lt;div style=&quot;font-size: 13px;&quot;&gt;&lt;font style=&quot;font-size: 13px;&quot;&gt;&lt;b&gt;Kafka&lt;/b&gt;&lt;/font&gt;&lt;/div&gt;&lt;div style=&quot;font-size: 13px;&quot;&gt;&lt;b&gt;&lt;font style=&quot;font-size: 13px;&quot;&gt;Consumer&lt;/font&gt;&lt;br&gt;&lt;/b&gt;&lt;/div&gt;" style="text;html=1;strokeColor=none;fillColor=none;align=center;verticalAlign=middle;whiteSpace=wrap;rounded=0;" parent="1" vertex="1">
          <mxGeometry x="911" y="-715" width="60" height="50" as="geometry" />
        </mxCell>
        <mxCell id="LkaJZbjGnA7sSVF9E5AU-73" value="&lt;b&gt;&lt;font style=&quot;font-size: 13px;&quot;&gt;Controller&lt;/font&gt;&lt;/b&gt;" style="text;html=1;strokeColor=none;fillColor=none;align=center;verticalAlign=middle;whiteSpace=wrap;rounded=0;" parent="1" vertex="1">
          <mxGeometry x="1066" y="-720" width="60" height="50" as="geometry" />
        </mxCell>
        <mxCell id="LkaJZbjGnA7sSVF9E5AU-74" value="&lt;font style=&quot;font-size: 13px;&quot;&gt;&lt;b&gt;Kafka Producer&lt;/b&gt;&lt;/font&gt;" style="text;html=1;strokeColor=none;fillColor=none;align=center;verticalAlign=middle;whiteSpace=wrap;rounded=0;" parent="1" vertex="1">
          <mxGeometry x="1211" y="-715" width="60" height="50" as="geometry" />
        </mxCell>
        <mxCell id="LkaJZbjGnA7sSVF9E5AU-76" value="" style="endArrow=none;html=1;rounded=0;" parent="1" source="LkaJZbjGnA7sSVF9E5AU-94" edge="1">
          <mxGeometry width="50" height="50" relative="1" as="geometry">
            <mxPoint x="940.58" y="-270" as="sourcePoint" />
            <mxPoint x="940.58" y="-670" as="targetPoint" />
          </mxGeometry>
        </mxCell>
        <mxCell id="LkaJZbjGnA7sSVF9E5AU-77" value="" style="endArrow=none;html=1;rounded=0;" parent="1" source="LkaJZbjGnA7sSVF9E5AU-86" edge="1">
          <mxGeometry width="50" height="50" relative="1" as="geometry">
            <mxPoint x="1096" y="-310" as="sourcePoint" />
            <mxPoint x="1096" y="-660" as="targetPoint" />
          </mxGeometry>
        </mxCell>
        <mxCell id="LkaJZbjGnA7sSVF9E5AU-92" style="edgeStyle=orthogonalEdgeStyle;rounded=0;orthogonalLoop=1;jettySize=auto;html=1;entryX=1;entryY=0.197;entryDx=0;entryDy=0;entryPerimeter=0;dashed=1;dashPattern=8 8;" parent="1" source="LkaJZbjGnA7sSVF9E5AU-80" target="LkaJZbjGnA7sSVF9E5AU-1" edge="1">
          <mxGeometry relative="1" as="geometry" />
        </mxCell>
        <mxCell id="LkaJZbjGnA7sSVF9E5AU-80" value="" style="rounded=1;whiteSpace=wrap;html=1;" parent="1" vertex="1">
          <mxGeometry x="911" y="-640" width="60" height="40" as="geometry" />
        </mxCell>
        <mxCell id="LkaJZbjGnA7sSVF9E5AU-83" value="" style="endArrow=none;html=1;rounded=0;" parent="1" target="LkaJZbjGnA7sSVF9E5AU-82" edge="1">
          <mxGeometry width="50" height="50" relative="1" as="geometry">
            <mxPoint x="941" y="-350" as="sourcePoint" />
            <mxPoint x="940.58" y="-670" as="targetPoint" />
          </mxGeometry>
        </mxCell>
        <mxCell id="LkaJZbjGnA7sSVF9E5AU-97" style="edgeStyle=orthogonalEdgeStyle;rounded=0;orthogonalLoop=1;jettySize=auto;html=1;dashed=1;dashPattern=8 8;" parent="1" source="LkaJZbjGnA7sSVF9E5AU-82" edge="1">
          <mxGeometry relative="1" as="geometry">
            <mxPoint x="661" y="-500" as="targetPoint" />
            <Array as="points">
              <mxPoint x="661" y="-500" />
            </Array>
          </mxGeometry>
        </mxCell>
        <mxCell id="LkaJZbjGnA7sSVF9E5AU-102" style="edgeStyle=orthogonalEdgeStyle;rounded=0;orthogonalLoop=1;jettySize=auto;html=1;entryX=-0.006;entryY=0.164;entryDx=0;entryDy=0;entryPerimeter=0;exitX=1;exitY=0.22;exitDx=0;exitDy=0;exitPerimeter=0;dashed=1;dashPattern=8 8;" parent="1" source="LkaJZbjGnA7sSVF9E5AU-82" target="LkaJZbjGnA7sSVF9E5AU-86" edge="1">
          <mxGeometry relative="1" as="geometry" />
        </mxCell>
        <mxCell id="LkaJZbjGnA7sSVF9E5AU-82" value="" style="rounded=1;whiteSpace=wrap;html=1;" parent="1" vertex="1">
          <mxGeometry x="911" y="-515" width="60" height="105" as="geometry" />
        </mxCell>
        <mxCell id="LkaJZbjGnA7sSVF9E5AU-87" value="" style="endArrow=none;html=1;rounded=0;" parent="1" target="LkaJZbjGnA7sSVF9E5AU-86" edge="1">
          <mxGeometry width="1175" height="710" relative="1" as="geometry">
            <mxPoint x="1096" y="-120" as="sourcePoint" />
            <mxPoint x="1096" y="-680" as="targetPoint" />
          </mxGeometry>
        </mxCell>
        <mxCell id="LkaJZbjGnA7sSVF9E5AU-91" value="" style="rounded=1;whiteSpace=wrap;html=1;" parent="LkaJZbjGnA7sSVF9E5AU-87" vertex="1">
          <mxGeometry x="1115" y="640" width="60" height="60" as="geometry" />
        </mxCell>
        <mxCell id="LkaJZbjGnA7sSVF9E5AU-105" style="edgeStyle=orthogonalEdgeStyle;rounded=0;orthogonalLoop=1;jettySize=auto;html=1;entryX=0.99;entryY=0.529;entryDx=0;entryDy=0;entryPerimeter=0;exitX=-0.015;exitY=0.372;exitDx=0;exitDy=0;exitPerimeter=0;dashed=1;dashPattern=8 8;" parent="1" source="LkaJZbjGnA7sSVF9E5AU-86" target="LkaJZbjGnA7sSVF9E5AU-82" edge="1">
          <mxGeometry relative="1" as="geometry" />
        </mxCell>
        <mxCell id="LkaJZbjGnA7sSVF9E5AU-119" style="edgeStyle=orthogonalEdgeStyle;rounded=0;orthogonalLoop=1;jettySize=auto;html=1;entryX=0.02;entryY=0.105;entryDx=0;entryDy=0;entryPerimeter=0;exitX=0.993;exitY=0.845;exitDx=0;exitDy=0;exitPerimeter=0;dashed=1;dashPattern=8 8;" parent="1" source="LkaJZbjGnA7sSVF9E5AU-86" target="LkaJZbjGnA7sSVF9E5AU-89" edge="1">
          <mxGeometry relative="1" as="geometry" />
        </mxCell>
        <mxCell id="LkaJZbjGnA7sSVF9E5AU-86" value="" style="rounded=1;whiteSpace=wrap;html=1;" parent="1" vertex="1">
          <mxGeometry x="1066" y="-517.5" width="60" height="157.5" as="geometry" />
        </mxCell>
        <mxCell id="LkaJZbjGnA7sSVF9E5AU-88" value="" style="endArrow=none;html=1;rounded=0;" parent="1" source="LkaJZbjGnA7sSVF9E5AU-89" edge="1">
          <mxGeometry width="50" height="50" relative="1" as="geometry">
            <mxPoint x="1241" y="-110" as="sourcePoint" />
            <mxPoint x="1241" y="-665" as="targetPoint" />
          </mxGeometry>
        </mxCell>
        <mxCell id="LkaJZbjGnA7sSVF9E5AU-90" value="" style="endArrow=none;html=1;rounded=0;" parent="1" target="LkaJZbjGnA7sSVF9E5AU-89" edge="1">
          <mxGeometry width="50" height="50" relative="1" as="geometry">
            <mxPoint x="1241" y="-150" as="sourcePoint" />
            <mxPoint x="1241" y="-665" as="targetPoint" />
          </mxGeometry>
        </mxCell>
        <mxCell id="LkaJZbjGnA7sSVF9E5AU-107" style="edgeStyle=orthogonalEdgeStyle;rounded=0;orthogonalLoop=1;jettySize=auto;html=1;entryX=0.988;entryY=0.138;entryDx=0;entryDy=0;entryPerimeter=0;exitX=0.008;exitY=0.942;exitDx=0;exitDy=0;exitPerimeter=0;dashed=1;dashPattern=8 8;" parent="1" source="LkaJZbjGnA7sSVF9E5AU-89" target="LkaJZbjGnA7sSVF9E5AU-91" edge="1">
          <mxGeometry relative="1" as="geometry" />
        </mxCell>
        <mxCell id="LkaJZbjGnA7sSVF9E5AU-114" style="edgeStyle=orthogonalEdgeStyle;rounded=0;orthogonalLoop=1;jettySize=auto;html=1;entryX=1.003;entryY=0.589;entryDx=0;entryDy=0;entryPerimeter=0;exitX=0.024;exitY=0.369;exitDx=0;exitDy=0;exitPerimeter=0;dashed=1;dashPattern=8 8;" parent="1" source="LkaJZbjGnA7sSVF9E5AU-89" target="LkaJZbjGnA7sSVF9E5AU-1" edge="1">
          <mxGeometry relative="1" as="geometry" />
        </mxCell>
        <mxCell id="LkaJZbjGnA7sSVF9E5AU-89" value="" style="rounded=1;whiteSpace=wrap;html=1;" parent="1" vertex="1">
          <mxGeometry x="1211" y="-400" width="60" height="157.5" as="geometry" />
        </mxCell>
        <mxCell id="LkaJZbjGnA7sSVF9E5AU-93" value="&lt;font style=&quot;font-size: 14px;&quot;&gt;subscribe&lt;/font&gt;" style="text;html=1;align=center;verticalAlign=middle;resizable=0;points=[];autosize=1;strokeColor=none;fillColor=none;" parent="1" vertex="1">
          <mxGeometry x="741" y="-660" width="80" height="30" as="geometry" />
        </mxCell>
        <mxCell id="LkaJZbjGnA7sSVF9E5AU-95" value="" style="endArrow=none;html=1;rounded=0;" parent="1" source="LkaJZbjGnA7sSVF9E5AU-82" target="LkaJZbjGnA7sSVF9E5AU-94" edge="1">
          <mxGeometry width="50" height="50" relative="1" as="geometry">
            <mxPoint x="941" y="-515" as="sourcePoint" />
            <mxPoint x="940.58" y="-670" as="targetPoint" />
          </mxGeometry>
        </mxCell>
        <mxCell id="LkaJZbjGnA7sSVF9E5AU-96" style="edgeStyle=orthogonalEdgeStyle;rounded=0;orthogonalLoop=1;jettySize=auto;html=1;entryX=1;entryY=0.268;entryDx=0;entryDy=0;entryPerimeter=0;dashed=1;dashPattern=8 8;" parent="1" source="LkaJZbjGnA7sSVF9E5AU-94" target="LkaJZbjGnA7sSVF9E5AU-1" edge="1">
          <mxGeometry relative="1" as="geometry" />
        </mxCell>
        <mxCell id="LkaJZbjGnA7sSVF9E5AU-94" value="" style="rounded=1;whiteSpace=wrap;html=1;" parent="1" vertex="1">
          <mxGeometry x="911" y="-590" width="60" height="40" as="geometry" />
        </mxCell>
        <mxCell id="LkaJZbjGnA7sSVF9E5AU-98" value="poll" style="text;html=1;align=center;verticalAlign=middle;resizable=0;points=[];autosize=1;strokeColor=none;fillColor=none;" parent="1" vertex="1">
          <mxGeometry x="761" y="-600" width="40" height="30" as="geometry" />
        </mxCell>
        <mxCell id="LkaJZbjGnA7sSVF9E5AU-100" value="poll" style="text;html=1;align=center;verticalAlign=middle;resizable=0;points=[];autosize=1;strokeColor=none;fillColor=none;" parent="1" vertex="1">
          <mxGeometry x="761" y="-525" width="40" height="30" as="geometry" />
        </mxCell>
        <mxCell id="LkaJZbjGnA7sSVF9E5AU-103" value="notify" style="text;html=1;strokeColor=none;fillColor=none;align=center;verticalAlign=middle;whiteSpace=wrap;rounded=0;" parent="1" vertex="1">
          <mxGeometry x="981" y="-517.5" width="60" height="30" as="geometry" />
        </mxCell>
        <mxCell id="LkaJZbjGnA7sSVF9E5AU-106" value="consume" style="text;html=1;strokeColor=none;fillColor=none;align=center;verticalAlign=middle;whiteSpace=wrap;rounded=0;" parent="1" vertex="1">
          <mxGeometry x="991" y="-487.5" width="60" height="30" as="geometry" />
        </mxCell>
        <mxCell id="LkaJZbjGnA7sSVF9E5AU-108" value="callback" style="text;html=1;strokeColor=none;fillColor=none;align=center;verticalAlign=middle;whiteSpace=wrap;rounded=0;" parent="1" vertex="1">
          <mxGeometry x="1141" y="-280" width="60" height="30" as="geometry" />
        </mxCell>
        <mxCell id="LkaJZbjGnA7sSVF9E5AU-109" value="" style="endArrow=none;dashed=1;html=1;rounded=0;" parent="1" edge="1">
          <mxGeometry width="50" height="50" relative="1" as="geometry">
            <mxPoint x="951" y="-350" as="sourcePoint" />
            <mxPoint x="981" y="-350" as="targetPoint" />
            <Array as="points">
              <mxPoint x="981" y="-350" />
            </Array>
          </mxGeometry>
        </mxCell>
        <mxCell id="LkaJZbjGnA7sSVF9E5AU-110" value="" style="endArrow=none;dashed=1;html=1;rounded=0;" parent="1" edge="1">
          <mxGeometry width="50" height="50" relative="1" as="geometry">
            <mxPoint x="1251" y="-150" as="sourcePoint" />
            <mxPoint x="1281" y="-150" as="targetPoint" />
          </mxGeometry>
        </mxCell>
        <mxCell id="LkaJZbjGnA7sSVF9E5AU-111" value="" style="endArrow=none;dashed=1;html=1;rounded=0;" parent="1" edge="1">
          <mxGeometry width="50" height="50" relative="1" as="geometry">
            <mxPoint x="1101" y="-120" as="sourcePoint" />
            <mxPoint x="1131" y="-120" as="targetPoint" />
          </mxGeometry>
        </mxCell>
        <mxCell id="LkaJZbjGnA7sSVF9E5AU-115" style="edgeStyle=orthogonalEdgeStyle;rounded=0;orthogonalLoop=1;jettySize=auto;html=1;entryX=0.028;entryY=0.649;entryDx=0;entryDy=0;entryPerimeter=0;exitX=1;exitY=0.651;exitDx=0;exitDy=0;exitPerimeter=0;strokeWidth=1;dashed=1;dashPattern=8 8;" parent="1" source="LkaJZbjGnA7sSVF9E5AU-1" target="LkaJZbjGnA7sSVF9E5AU-89" edge="1">
          <mxGeometry relative="1" as="geometry" />
        </mxCell>
        <mxCell id="LkaJZbjGnA7sSVF9E5AU-117" value="send" style="text;html=1;align=center;verticalAlign=middle;resizable=0;points=[];autosize=1;strokeColor=none;fillColor=none;" parent="1" vertex="1">
          <mxGeometry x="756" y="-370" width="50" height="30" as="geometry" />
        </mxCell>
        <mxCell id="LkaJZbjGnA7sSVF9E5AU-118" value="ack" style="text;strokeColor=none;align=center;fillColor=none;html=1;verticalAlign=middle;whiteSpace=wrap;rounded=0;" parent="1" vertex="1">
          <mxGeometry x="751" y="-330" width="60" height="30" as="geometry" />
        </mxCell>
        <mxCell id="LkaJZbjGnA7sSVF9E5AU-120" value="&lt;div&gt;response&lt;/div&gt;&lt;div&gt;info&lt;br&gt;&lt;/div&gt;" style="text;html=1;strokeColor=none;fillColor=none;align=center;verticalAlign=middle;whiteSpace=wrap;rounded=0;" parent="1" vertex="1">
          <mxGeometry x="1141" y="-420" width="60" height="30" as="geometry" />
        </mxCell>
        <mxCell id="LkaJZbjGnA7sSVF9E5AU-122" value="" style="shape=flexArrow;endArrow=classic;html=1;rounded=0;fillColor=#ffff88;strokeColor=#36393d;" parent="1" edge="1">
          <mxGeometry width="50" height="50" relative="1" as="geometry">
            <mxPoint x="-69" y="-51.25" as="sourcePoint" />
            <mxPoint x="161" y="-51.25" as="targetPoint" />
          </mxGeometry>
        </mxCell>
        <mxCell id="LkaJZbjGnA7sSVF9E5AU-124" value="&lt;font style=&quot;font-size: 14px;&quot;&gt;&lt;b&gt;Topic A&lt;/b&gt;&lt;/font&gt;" style="text;html=1;align=center;verticalAlign=middle;resizable=0;points=[];autosize=1;strokeColor=none;fillColor=none;" parent="1" vertex="1">
          <mxGeometry x="1" y="-90" width="70" height="30" as="geometry" />
        </mxCell>
        <mxCell id="LkaJZbjGnA7sSVF9E5AU-125" value="Operation Info" style="swimlane;whiteSpace=wrap;html=1;" parent="1" vertex="1" collapsed="1">
          <mxGeometry x="-59" y="-30" width="140" height="30" as="geometry">
            <mxRectangle x="-10" y="870" width="270" height="280" as="alternateBounds" />
          </mxGeometry>
        </mxCell>
        <mxCell id="LkaJZbjGnA7sSVF9E5AU-132" value="number&amp;nbsp;&amp;nbsp;&amp;nbsp;&amp;nbsp;&amp;nbsp;&amp;nbsp;&amp;nbsp;&amp;nbsp;&amp;nbsp;&amp;nbsp;&amp;nbsp; &lt;i&gt;varchar&lt;/i&gt;" style="text;strokeColor=none;fillColor=none;align=left;verticalAlign=middle;spacingLeft=4;spacingRight=4;overflow=hidden;points=[[0,0.5],[1,0.5]];portConstraint=eastwest;rotatable=0;whiteSpace=wrap;html=1;" parent="LkaJZbjGnA7sSVF9E5AU-125" vertex="1">
          <mxGeometry x="25" y="40" width="225" height="30" as="geometry" />
        </mxCell>
        <mxCell id="LkaJZbjGnA7sSVF9E5AU-133" value="type&amp;nbsp;&amp;nbsp;&amp;nbsp;&amp;nbsp;&amp;nbsp;&amp;nbsp;&amp;nbsp;&amp;nbsp;&amp;nbsp;&amp;nbsp;&amp;nbsp;&amp;nbsp;&amp;nbsp;&amp;nbsp;&amp;nbsp;&amp;nbsp; &lt;i&gt;enum(credit, deposit, current)&lt;/i&gt;" style="text;strokeColor=none;fillColor=none;align=left;verticalAlign=middle;spacingLeft=4;spacingRight=4;overflow=hidden;points=[[0,0.5],[1,0.5]];portConstraint=eastwest;rotatable=0;whiteSpace=wrap;html=1;" parent="LkaJZbjGnA7sSVF9E5AU-125" vertex="1">
          <mxGeometry x="25" y="70" width="245" height="30" as="geometry" />
        </mxCell>
        <mxCell id="LkaJZbjGnA7sSVF9E5AU-134" value="clientId&amp;nbsp;&amp;nbsp;&amp;nbsp;&amp;nbsp;&amp;nbsp;&amp;nbsp;&amp;nbsp;&amp;nbsp;&amp;nbsp;&amp;nbsp;&amp;nbsp;&amp;nbsp; &lt;i&gt;varchar(uuid)&lt;/i&gt;" style="text;strokeColor=none;fillColor=none;align=left;verticalAlign=middle;spacingLeft=4;spacingRight=4;overflow=hidden;points=[[0,0.5],[1,0.5]];portConstraint=eastwest;rotatable=0;whiteSpace=wrap;html=1;" parent="LkaJZbjGnA7sSVF9E5AU-125" vertex="1">
          <mxGeometry x="25" y="100" width="215" height="30" as="geometry" />
        </mxCell>
        <mxCell id="LkaJZbjGnA7sSVF9E5AU-135" value="date&amp;nbsp;&amp;nbsp;&amp;nbsp;&amp;nbsp;&amp;nbsp;&amp;nbsp;&amp;nbsp;&amp;nbsp;&amp;nbsp;&amp;nbsp;&amp;nbsp;&amp;nbsp;&amp;nbsp;&amp;nbsp;&amp;nbsp;&amp;nbsp; &lt;i&gt;timestamp&lt;/i&gt;" style="text;strokeColor=none;fillColor=none;align=left;verticalAlign=middle;spacingLeft=4;spacingRight=4;overflow=hidden;points=[[0,0.5],[1,0.5]];portConstraint=eastwest;rotatable=0;whiteSpace=wrap;html=1;" parent="LkaJZbjGnA7sSVF9E5AU-125" vertex="1">
          <mxGeometry x="25" y="140" width="225" height="30" as="geometry" />
        </mxCell>
        <mxCell id="LkaJZbjGnA7sSVF9E5AU-136" value="status&amp;nbsp;&amp;nbsp;&amp;nbsp;&amp;nbsp;&amp;nbsp;&amp;nbsp;&amp;nbsp;&amp;nbsp;&amp;nbsp;&amp;nbsp;&amp;nbsp;&amp;nbsp;&amp;nbsp; &lt;i&gt;enum(active, blocked, closed)&lt;/i&gt;" style="text;strokeColor=none;fillColor=none;align=left;verticalAlign=middle;spacingLeft=4;spacingRight=4;overflow=hidden;points=[[0,0.5],[1,0.5]];portConstraint=eastwest;rotatable=0;whiteSpace=wrap;html=1;" parent="LkaJZbjGnA7sSVF9E5AU-125" vertex="1">
          <mxGeometry x="25" y="180" width="245" height="30" as="geometry" />
        </mxCell>
        <mxCell id="LkaJZbjGnA7sSVF9E5AU-137" value="currency_balance &amp;nbsp;&amp;nbsp;&amp;nbsp;&amp;nbsp;&amp;nbsp;&amp;nbsp;&amp;nbsp; &lt;i&gt;int(float)&lt;/i&gt;" style="text;strokeColor=none;fillColor=none;align=left;verticalAlign=middle;spacingLeft=4;spacingRight=4;overflow=hidden;points=[[0,0.5],[1,0.5]];portConstraint=eastwest;rotatable=0;whiteSpace=wrap;html=1;" parent="LkaJZbjGnA7sSVF9E5AU-125" vertex="1">
          <mxGeometry x="25" y="220" width="235" height="30" as="geometry" />
        </mxCell>
        <mxCell id="LkaJZbjGnA7sSVF9E5AU-126" value="" style="shape=flexArrow;endArrow=classic;html=1;rounded=0;fillColor=#FF0080;strokeColor=#36393d;" parent="1" edge="1">
          <mxGeometry width="50" height="50" relative="1" as="geometry">
            <mxPoint x="881" y="-50" as="sourcePoint" />
            <mxPoint x="651" y="-50" as="targetPoint" />
          </mxGeometry>
        </mxCell>
        <mxCell id="LkaJZbjGnA7sSVF9E5AU-129" value="&lt;font style=&quot;font-size: 14px;&quot;&gt;&lt;b&gt;Topic B&lt;br&gt;&lt;/b&gt;&lt;/font&gt;" style="text;html=1;align=center;verticalAlign=middle;resizable=0;points=[];autosize=1;strokeColor=none;fillColor=none;" parent="1" vertex="1">
          <mxGeometry x="741" y="-90" width="70" height="30" as="geometry" />
        </mxCell>
        <mxCell id="LkaJZbjGnA7sSVF9E5AU-149" value="Response Info" style="swimlane;whiteSpace=wrap;html=1;" parent="1" vertex="1" collapsed="1">
          <mxGeometry x="706" y="-30" width="140" height="30" as="geometry">
            <mxRectangle x="755" y="870" width="270" height="130" as="alternateBounds" />
          </mxGeometry>
        </mxCell>
        <mxCell id="LkaJZbjGnA7sSVF9E5AU-150" value="status&amp;nbsp;&amp;nbsp;&amp;nbsp;&amp;nbsp;&amp;nbsp;&amp;nbsp;&amp;nbsp;&amp;nbsp;&amp;nbsp;&amp;nbsp;&amp;nbsp;&amp;nbsp;&amp;nbsp; &lt;i&gt;enum&lt;/i&gt;" style="text;strokeColor=none;fillColor=none;align=left;verticalAlign=middle;spacingLeft=4;spacingRight=4;overflow=hidden;points=[[0,0.5],[1,0.5]];portConstraint=eastwest;rotatable=0;whiteSpace=wrap;html=1;" parent="LkaJZbjGnA7sSVF9E5AU-149" vertex="1">
          <mxGeometry x="25" y="40" width="225" height="30" as="geometry" />
        </mxCell>
        <mxCell id="LkaJZbjGnA7sSVF9E5AU-157" value="Account Info After Operation" style="text;strokeColor=none;fillColor=none;align=left;verticalAlign=middle;spacingLeft=4;spacingRight=4;overflow=hidden;points=[[0,0.5],[1,0.5]];portConstraint=eastwest;rotatable=0;whiteSpace=wrap;html=1;" parent="LkaJZbjGnA7sSVF9E5AU-149" vertex="1">
          <mxGeometry x="25" y="80" width="225" height="30" as="geometry" />
        </mxCell>
        <mxCell id="LkaJZbjGnA7sSVF9E5AU-186" value="" style="rounded=1;whiteSpace=wrap;html=1;fillColor=#eeeeee;strokeColor=#36393d;opacity=90;" parent="1" vertex="1">
          <mxGeometry x="-549" y="-780" width="490" height="710" as="geometry" />
        </mxCell>
        <mxCell id="LkaJZbjGnA7sSVF9E5AU-187" value="&lt;div style=&quot;font-size: 13px;&quot;&gt;&lt;font style=&quot;font-size: 13px;&quot;&gt;&lt;b&gt;Kafka&lt;/b&gt;&lt;/font&gt;&lt;/div&gt;&lt;div style=&quot;font-size: 13px;&quot;&gt;&lt;b&gt;&lt;font style=&quot;font-size: 13px;&quot;&gt;Consumer&lt;/font&gt;&lt;br&gt;&lt;/b&gt;&lt;/div&gt;" style="text;html=1;strokeColor=none;fillColor=none;align=center;verticalAlign=middle;whiteSpace=wrap;rounded=0;" parent="1" vertex="1">
          <mxGeometry x="-489" y="-497.5" width="60" height="50" as="geometry" />
        </mxCell>
        <mxCell id="LkaJZbjGnA7sSVF9E5AU-188" value="&lt;b&gt;&lt;font style=&quot;font-size: 13px;&quot;&gt;Controller&lt;/font&gt;&lt;/b&gt;" style="text;html=1;strokeColor=none;fillColor=none;align=center;verticalAlign=middle;whiteSpace=wrap;rounded=0;" parent="1" vertex="1">
          <mxGeometry x="-334" y="-740" width="60" height="50" as="geometry" />
        </mxCell>
        <mxCell id="LkaJZbjGnA7sSVF9E5AU-189" value="&lt;font style=&quot;font-size: 13px;&quot;&gt;&lt;b&gt;Kafka Producer&lt;/b&gt;&lt;/font&gt;" style="text;html=1;strokeColor=none;fillColor=none;align=center;verticalAlign=middle;whiteSpace=wrap;rounded=0;" parent="1" vertex="1">
          <mxGeometry x="-189" y="-735" width="60" height="50" as="geometry" />
        </mxCell>
        <mxCell id="LkaJZbjGnA7sSVF9E5AU-190" value="" style="endArrow=none;html=1;rounded=0;" parent="1" source="LkaJZbjGnA7sSVF9E5AU-206" edge="1">
          <mxGeometry width="50" height="50" relative="1" as="geometry">
            <mxPoint x="-459.41999999999996" y="-290" as="sourcePoint" />
            <mxPoint x="-459" y="-430" as="targetPoint" />
          </mxGeometry>
        </mxCell>
        <mxCell id="LkaJZbjGnA7sSVF9E5AU-191" value="" style="endArrow=none;html=1;rounded=0;" parent="1" source="LkaJZbjGnA7sSVF9E5AU-200" edge="1">
          <mxGeometry width="50" height="50" relative="1" as="geometry">
            <mxPoint x="-304" y="-330" as="sourcePoint" />
            <mxPoint x="-304" y="-680" as="targetPoint" />
          </mxGeometry>
        </mxCell>
        <mxCell id="LkaJZbjGnA7sSVF9E5AU-231" style="edgeStyle=orthogonalEdgeStyle;rounded=1;orthogonalLoop=1;jettySize=auto;html=1;entryX=0.003;entryY=0.527;entryDx=0;entryDy=0;entryPerimeter=0;dashed=1;dashPattern=8 8;" parent="1" source="LkaJZbjGnA7sSVF9E5AU-192" target="LkaJZbjGnA7sSVF9E5AU-1" edge="1">
          <mxGeometry relative="1" as="geometry" />
        </mxCell>
        <mxCell id="LkaJZbjGnA7sSVF9E5AU-192" value="" style="rounded=1;whiteSpace=wrap;html=1;" parent="1" vertex="1">
          <mxGeometry x="-489" y="-405" width="60" height="40" as="geometry" />
        </mxCell>
        <mxCell id="LkaJZbjGnA7sSVF9E5AU-195" value="" style="rounded=1;whiteSpace=wrap;html=1;" parent="1" vertex="1">
          <mxGeometry x="-489" y="-190" width="60" height="37.5" as="geometry" />
        </mxCell>
        <mxCell id="LkaJZbjGnA7sSVF9E5AU-196" value="" style="endArrow=none;html=1;rounded=0;" parent="1" source="LkaJZbjGnA7sSVF9E5AU-215" target="LkaJZbjGnA7sSVF9E5AU-200" edge="1">
          <mxGeometry width="1175" height="710" relative="1" as="geometry">
            <mxPoint x="-304" y="-140" as="sourcePoint" />
            <mxPoint x="-304" y="-700" as="targetPoint" />
          </mxGeometry>
        </mxCell>
        <mxCell id="LkaJZbjGnA7sSVF9E5AU-197" value="" style="rounded=1;whiteSpace=wrap;html=1;" parent="LkaJZbjGnA7sSVF9E5AU-196" vertex="1">
          <mxGeometry x="1115" y="640" width="60" height="60" as="geometry" />
        </mxCell>
        <mxCell id="LkaJZbjGnA7sSVF9E5AU-199" style="edgeStyle=orthogonalEdgeStyle;rounded=0;orthogonalLoop=1;jettySize=auto;html=1;entryX=0.02;entryY=0.105;entryDx=0;entryDy=0;entryPerimeter=0;exitX=0.988;exitY=0.421;exitDx=0;exitDy=0;exitPerimeter=0;dashed=1;dashPattern=8 8;" parent="1" source="LkaJZbjGnA7sSVF9E5AU-200" target="LkaJZbjGnA7sSVF9E5AU-204" edge="1">
          <mxGeometry relative="1" as="geometry" />
        </mxCell>
        <mxCell id="LkaJZbjGnA7sSVF9E5AU-200" value="" style="rounded=1;whiteSpace=wrap;html=1;" parent="1" vertex="1">
          <mxGeometry x="-334" y="-660" width="60" height="80" as="geometry" />
        </mxCell>
        <mxCell id="LkaJZbjGnA7sSVF9E5AU-201" value="" style="endArrow=none;html=1;rounded=0;" parent="1" source="LkaJZbjGnA7sSVF9E5AU-204" edge="1">
          <mxGeometry width="50" height="50" relative="1" as="geometry">
            <mxPoint x="-159" y="-130" as="sourcePoint" />
            <mxPoint x="-159" y="-685" as="targetPoint" />
          </mxGeometry>
        </mxCell>
        <mxCell id="LkaJZbjGnA7sSVF9E5AU-202" value="" style="endArrow=none;html=1;rounded=0;" parent="1" target="LkaJZbjGnA7sSVF9E5AU-204" edge="1">
          <mxGeometry width="50" height="50" relative="1" as="geometry">
            <mxPoint x="-159" y="-450" as="sourcePoint" />
            <mxPoint x="-159" y="-685" as="targetPoint" />
          </mxGeometry>
        </mxCell>
        <mxCell id="LkaJZbjGnA7sSVF9E5AU-218" style="edgeStyle=orthogonalEdgeStyle;rounded=0;orthogonalLoop=1;jettySize=auto;html=1;exitX=1;exitY=0.25;exitDx=0;exitDy=0;entryX=-0.002;entryY=0.215;entryDx=0;entryDy=0;entryPerimeter=0;dashed=1;dashPattern=8 8;" parent="1" source="LkaJZbjGnA7sSVF9E5AU-204" target="LkaJZbjGnA7sSVF9E5AU-1" edge="1">
          <mxGeometry relative="1" as="geometry" />
        </mxCell>
        <mxCell id="LkaJZbjGnA7sSVF9E5AU-224" style="edgeStyle=orthogonalEdgeStyle;rounded=0;orthogonalLoop=1;jettySize=auto;html=1;entryX=1;entryY=0.25;entryDx=0;entryDy=0;exitX=0.016;exitY=0.828;exitDx=0;exitDy=0;exitPerimeter=0;dashed=1;dashPattern=8 8;" parent="1" source="LkaJZbjGnA7sSVF9E5AU-204" target="LkaJZbjGnA7sSVF9E5AU-215" edge="1">
          <mxGeometry relative="1" as="geometry" />
        </mxCell>
        <mxCell id="LkaJZbjGnA7sSVF9E5AU-204" value="" style="rounded=1;whiteSpace=wrap;html=1;" parent="1" vertex="1">
          <mxGeometry x="-189" y="-640" width="60" height="130" as="geometry" />
        </mxCell>
        <mxCell id="LkaJZbjGnA7sSVF9E5AU-205" value="" style="endArrow=none;html=1;rounded=0;" parent="1" source="LkaJZbjGnA7sSVF9E5AU-195" target="LkaJZbjGnA7sSVF9E5AU-206" edge="1">
          <mxGeometry width="50" height="50" relative="1" as="geometry">
            <mxPoint x="-459" y="-535" as="sourcePoint" />
            <mxPoint x="-459.41999999999996" y="-690" as="targetPoint" />
          </mxGeometry>
        </mxCell>
        <mxCell id="LkaJZbjGnA7sSVF9E5AU-233" style="edgeStyle=orthogonalEdgeStyle;rounded=1;orthogonalLoop=1;jettySize=auto;html=1;entryX=0.003;entryY=0.636;entryDx=0;entryDy=0;entryPerimeter=0;exitX=1.083;exitY=0.126;exitDx=0;exitDy=0;exitPerimeter=0;dashed=1;dashPattern=8 8;" parent="1" source="LkaJZbjGnA7sSVF9E5AU-206" target="LkaJZbjGnA7sSVF9E5AU-1" edge="1">
          <mxGeometry relative="1" as="geometry" />
        </mxCell>
        <mxCell id="LkaJZbjGnA7sSVF9E5AU-240" style="edgeStyle=orthogonalEdgeStyle;rounded=0;orthogonalLoop=1;jettySize=auto;html=1;entryX=0.017;entryY=0.169;entryDx=0;entryDy=0;entryPerimeter=0;dashed=1;dashPattern=8 8;" parent="1" source="LkaJZbjGnA7sSVF9E5AU-206" target="LkaJZbjGnA7sSVF9E5AU-236" edge="1">
          <mxGeometry relative="1" as="geometry" />
        </mxCell>
        <mxCell id="LkaJZbjGnA7sSVF9E5AU-206" value="" style="rounded=1;whiteSpace=wrap;html=1;" parent="1" vertex="1">
          <mxGeometry x="-489" y="-320" width="60" height="90" as="geometry" />
        </mxCell>
        <mxCell id="LkaJZbjGnA7sSVF9E5AU-207" value="notify" style="text;html=1;strokeColor=none;fillColor=none;align=center;verticalAlign=middle;whiteSpace=wrap;rounded=0;" parent="1" vertex="1">
          <mxGeometry x="-409" y="-300" width="60" height="30" as="geometry" />
        </mxCell>
        <mxCell id="LkaJZbjGnA7sSVF9E5AU-208" value="consume" style="text;html=1;strokeColor=none;fillColor=none;align=center;verticalAlign=middle;whiteSpace=wrap;rounded=0;" parent="1" vertex="1">
          <mxGeometry x="-409" y="-272.5" width="60" height="30" as="geometry" />
        </mxCell>
        <mxCell id="LkaJZbjGnA7sSVF9E5AU-211" value="" style="endArrow=none;dashed=1;html=1;rounded=0;" parent="1" edge="1">
          <mxGeometry width="50" height="50" relative="1" as="geometry">
            <mxPoint x="-146.5" y="-450" as="sourcePoint" />
            <mxPoint x="-116.5" y="-450" as="targetPoint" />
          </mxGeometry>
        </mxCell>
        <mxCell id="LkaJZbjGnA7sSVF9E5AU-212" value="" style="endArrow=none;dashed=1;html=1;rounded=0;" parent="1" edge="1">
          <mxGeometry width="50" height="50" relative="1" as="geometry">
            <mxPoint x="-299" y="-140" as="sourcePoint" />
            <mxPoint x="-269" y="-140" as="targetPoint" />
          </mxGeometry>
        </mxCell>
        <mxCell id="LkaJZbjGnA7sSVF9E5AU-214" value="&lt;font style=&quot;font-size: 15px;&quot;&gt;&lt;b&gt;&lt;font style=&quot;font-size: 15px;&quot;&gt;Credit Service&lt;/font&gt;&lt;/b&gt;&lt;/font&gt;" style="text;html=1;align=center;verticalAlign=middle;resizable=0;points=[];autosize=1;strokeColor=none;fillColor=none;" parent="1" vertex="1">
          <mxGeometry x="-349" y="-820" width="120" height="30" as="geometry" />
        </mxCell>
        <mxCell id="LkaJZbjGnA7sSVF9E5AU-216" value="" style="endArrow=none;html=1;rounded=0;" parent="1" target="LkaJZbjGnA7sSVF9E5AU-215" edge="1">
          <mxGeometry width="1175" height="710" relative="1" as="geometry">
            <mxPoint x="-304" y="-140" as="sourcePoint" />
            <mxPoint x="-304" y="-570" as="targetPoint" />
          </mxGeometry>
        </mxCell>
        <mxCell id="LkaJZbjGnA7sSVF9E5AU-217" value="" style="rounded=1;whiteSpace=wrap;html=1;" parent="LkaJZbjGnA7sSVF9E5AU-216" vertex="1">
          <mxGeometry x="1115" y="640" width="60" height="60" as="geometry" />
        </mxCell>
        <mxCell id="LkaJZbjGnA7sSVF9E5AU-215" value="" style="rounded=1;whiteSpace=wrap;html=1;" parent="1" vertex="1">
          <mxGeometry x="-334" y="-555" width="60" height="90" as="geometry" />
        </mxCell>
        <mxCell id="LkaJZbjGnA7sSVF9E5AU-219" value="send" style="text;html=1;align=center;verticalAlign=middle;resizable=0;points=[];autosize=1;strokeColor=none;fillColor=none;" parent="1" vertex="1">
          <mxGeometry x="-9" y="-640" width="50" height="30" as="geometry" />
        </mxCell>
        <mxCell id="LkaJZbjGnA7sSVF9E5AU-221" style="edgeStyle=orthogonalEdgeStyle;rounded=0;orthogonalLoop=1;jettySize=auto;html=1;exitX=-0.003;exitY=0.274;exitDx=0;exitDy=0;exitPerimeter=0;entryX=0.974;entryY=0.576;entryDx=0;entryDy=0;entryPerimeter=0;dashed=1;dashPattern=8 8;" parent="1" source="LkaJZbjGnA7sSVF9E5AU-1" target="LkaJZbjGnA7sSVF9E5AU-204" edge="1">
          <mxGeometry relative="1" as="geometry" />
        </mxCell>
        <mxCell id="LkaJZbjGnA7sSVF9E5AU-222" value="ack" style="text;html=1;align=center;verticalAlign=middle;resizable=0;points=[];autosize=1;strokeColor=none;fillColor=none;" parent="1" vertex="1">
          <mxGeometry x="-9" y="-590" width="40" height="30" as="geometry" />
        </mxCell>
        <mxCell id="LkaJZbjGnA7sSVF9E5AU-223" value="credit info" style="text;html=1;strokeColor=none;fillColor=none;align=center;verticalAlign=middle;whiteSpace=wrap;rounded=0;" parent="1" vertex="1">
          <mxGeometry x="-259" y="-655" width="60" height="30" as="geometry" />
        </mxCell>
        <mxCell id="LkaJZbjGnA7sSVF9E5AU-225" value="callback" style="text;html=1;strokeColor=none;fillColor=none;align=center;verticalAlign=middle;whiteSpace=wrap;rounded=0;" parent="1" vertex="1">
          <mxGeometry x="-259" y="-565" width="60" height="30" as="geometry" />
        </mxCell>
        <mxCell id="LkaJZbjGnA7sSVF9E5AU-227" value="" style="endArrow=none;html=1;rounded=0;exitX=0.5;exitY=1;exitDx=0;exitDy=0;" parent="1" source="LkaJZbjGnA7sSVF9E5AU-195" edge="1">
          <mxGeometry width="50" height="50" relative="1" as="geometry">
            <mxPoint x="-249" y="-310" as="sourcePoint" />
            <mxPoint x="-459" y="-130" as="targetPoint" />
          </mxGeometry>
        </mxCell>
        <mxCell id="LkaJZbjGnA7sSVF9E5AU-230" value="" style="endArrow=none;dashed=1;html=1;rounded=0;" parent="1" edge="1">
          <mxGeometry width="50" height="50" relative="1" as="geometry">
            <mxPoint x="-474" y="-438.95000000000005" as="sourcePoint" />
            <mxPoint x="-444" y="-438.95000000000005" as="targetPoint" />
          </mxGeometry>
        </mxCell>
        <mxCell id="LkaJZbjGnA7sSVF9E5AU-232" value="poll" style="text;html=1;align=center;verticalAlign=middle;resizable=0;points=[];autosize=1;strokeColor=none;fillColor=none;" parent="1" vertex="1">
          <mxGeometry x="11" y="-420" width="40" height="30" as="geometry" />
        </mxCell>
        <mxCell id="LkaJZbjGnA7sSVF9E5AU-234" value="poll" style="text;html=1;align=center;verticalAlign=middle;resizable=0;points=[];autosize=1;strokeColor=none;fillColor=none;" parent="1" vertex="1">
          <mxGeometry x="11" y="-340" width="40" height="30" as="geometry" />
        </mxCell>
        <mxCell id="LkaJZbjGnA7sSVF9E5AU-235" value="" style="endArrow=none;dashed=1;html=1;rounded=0;" parent="1" edge="1">
          <mxGeometry width="50" height="50" relative="1" as="geometry">
            <mxPoint x="-449" y="-130" as="sourcePoint" />
            <mxPoint x="-419" y="-130" as="targetPoint" />
          </mxGeometry>
        </mxCell>
        <mxCell id="LkaJZbjGnA7sSVF9E5AU-241" style="edgeStyle=orthogonalEdgeStyle;rounded=0;orthogonalLoop=1;jettySize=auto;html=1;entryX=0.986;entryY=0.839;entryDx=0;entryDy=0;entryPerimeter=0;dashed=1;dashPattern=8 8;" parent="1" source="LkaJZbjGnA7sSVF9E5AU-236" target="LkaJZbjGnA7sSVF9E5AU-206" edge="1">
          <mxGeometry relative="1" as="geometry" />
        </mxCell>
        <mxCell id="LkaJZbjGnA7sSVF9E5AU-236" value="" style="rounded=1;whiteSpace=wrap;html=1;" parent="1" vertex="1">
          <mxGeometry x="-334" y="-290" width="60" height="90" as="geometry" />
        </mxCell>
        <mxCell id="LkaJZbjGnA7sSVF9E5AU-242" value="&lt;b&gt;Card Service&lt;br&gt;&lt;/b&gt;" style="text;html=1;align=center;verticalAlign=middle;resizable=0;points=[];autosize=1;strokeColor=none;fillColor=none;" parent="1" vertex="1">
          <mxGeometry x="-199" y="-1020" width="100" height="30" as="geometry" />
        </mxCell>
        <mxCell id="LkaJZbjGnA7sSVF9E5AU-243" value="&lt;b&gt;&lt;font style=&quot;font-size: 14px;&quot;&gt;Deposit Service&lt;/font&gt;&lt;/b&gt;" style="text;html=1;align=center;verticalAlign=middle;resizable=0;points=[];autosize=1;strokeColor=none;fillColor=none;" parent="1" vertex="1">
          <mxGeometry x="366" y="-1010" width="130" height="30" as="geometry" />
        </mxCell>
        <mxCell id="LkaJZbjGnA7sSVF9E5AU-244" value="" style="endArrow=none;dashed=1;html=1;rounded=0;strokeWidth=3;" parent="1" edge="1">
          <mxGeometry width="50" height="50" relative="1" as="geometry">
            <mxPoint x="671" y="-940" as="sourcePoint" />
            <mxPoint x="831" y="-940" as="targetPoint" />
          </mxGeometry>
        </mxCell>
        <mxCell id="LkaJZbjGnA7sSVF9E5AU-250" style="edgeStyle=orthogonalEdgeStyle;rounded=0;orthogonalLoop=1;jettySize=auto;html=1;entryX=0.75;entryY=0;entryDx=0;entryDy=0;" parent="1" source="LkaJZbjGnA7sSVF9E5AU-246" target="LkaJZbjGnA7sSVF9E5AU-1" edge="1">
          <mxGeometry relative="1" as="geometry">
            <Array as="points">
              <mxPoint x="1096" y="-830" />
              <mxPoint x="539" y="-830" />
            </Array>
          </mxGeometry>
        </mxCell>
        <mxCell id="LkaJZbjGnA7sSVF9E5AU-246" value="" style="rounded=1;whiteSpace=wrap;html=1;fillColor=#eeeeee;strokeColor=#36393d;" parent="1" vertex="1">
          <mxGeometry x="886" y="-983.75" width="420" height="110" as="geometry" />
        </mxCell>
        <mxCell id="LkaJZbjGnA7sSVF9E5AU-247" value="&lt;font style=&quot;font-size: 14px;&quot;&gt;&lt;b&gt;Service N&lt;br&gt;&lt;/b&gt;&lt;/font&gt;" style="text;html=1;align=center;verticalAlign=middle;resizable=0;points=[];autosize=1;strokeColor=none;fillColor=none;" parent="1" vertex="1">
          <mxGeometry x="1051" y="-1017.5" width="90" height="30" as="geometry" />
        </mxCell>
        <mxCell id="LkaJZbjGnA7sSVF9E5AU-262" value="" style="rounded=1;whiteSpace=wrap;html=1;fillColor=#FA7D96;fontColor=#000000;strokeColor=#C73500;" parent="1" vertex="1">
          <mxGeometry x="-630" y="477.5" width="280" height="105" as="geometry" />
        </mxCell>
        <mxCell id="LkaJZbjGnA7sSVF9E5AU-263" value="" style="rounded=1;whiteSpace=wrap;html=1;fillColor=#cdeb8b;strokeColor=#36393d;" parent="1" vertex="1">
          <mxGeometry x="-630" y="360" width="280" height="100" as="geometry" />
        </mxCell>
        <mxCell id="LkaJZbjGnA7sSVF9E5AU-264" value="&lt;font style=&quot;font-size: 16px;&quot;&gt;Компенсируемые&lt;/font&gt;" style="text;html=1;strokeColor=none;fillColor=none;align=center;verticalAlign=middle;whiteSpace=wrap;rounded=0;" parent="1" vertex="1">
          <mxGeometry x="-615" y="385" width="250" height="50" as="geometry" />
        </mxCell>
        <mxCell id="LkaJZbjGnA7sSVF9E5AU-265" value="&lt;font style=&quot;font-size: 16px;&quot;&gt;Компенсирующие&lt;/font&gt;" style="text;html=1;strokeColor=none;fillColor=none;align=center;verticalAlign=middle;whiteSpace=wrap;rounded=0;" parent="1" vertex="1">
          <mxGeometry x="-620" y="505" width="250" height="50" as="geometry" />
        </mxCell>
        <mxCell id="LkaJZbjGnA7sSVF9E5AU-279" value="" style="rounded=1;whiteSpace=wrap;html=1;fillColor=#ffff88;strokeColor=#36393d;" parent="1" vertex="1">
          <mxGeometry x="-630" y="617.5" width="280" height="105" as="geometry" />
        </mxCell>
        <mxCell id="LkaJZbjGnA7sSVF9E5AU-280" value="&lt;font style=&quot;font-size: 16px;&quot;&gt;Поворотная&lt;/font&gt;" style="text;html=1;strokeColor=none;fillColor=none;align=center;verticalAlign=middle;whiteSpace=wrap;rounded=0;" parent="1" vertex="1">
          <mxGeometry x="-615" y="645" width="250" height="50" as="geometry" />
        </mxCell>
        <mxCell id="LkaJZbjGnA7sSVF9E5AU-281" value="" style="rounded=1;whiteSpace=wrap;html=1;fillColor=#e1d5e7;strokeColor=#9673a6;" parent="1" vertex="1">
          <mxGeometry x="-630" y="750" width="280" height="105" as="geometry" />
        </mxCell>
        <mxCell id="LkaJZbjGnA7sSVF9E5AU-282" value="&lt;font style=&quot;font-size: 16px;&quot;&gt;Повторяемая&lt;/font&gt;" style="text;html=1;strokeColor=none;fillColor=none;align=center;verticalAlign=middle;whiteSpace=wrap;rounded=0;" parent="1" vertex="1">
          <mxGeometry x="-610" y="777.5" width="250" height="50" as="geometry" />
        </mxCell>
        <mxCell id="LkaJZbjGnA7sSVF9E5AU-286" value="" style="rounded=0;whiteSpace=wrap;html=1;" parent="1" vertex="1">
          <mxGeometry x="-280" y="343" width="840" height="535" as="geometry" />
        </mxCell>
        <mxCell id="LkaJZbjGnA7sSVF9E5AU-287" value="" style="rounded=1;whiteSpace=wrap;html=1;fillColor=#f9f7ed;strokeColor=#36393d;" parent="1" vertex="1">
          <mxGeometry x="-255" y="368" width="790" height="50" as="geometry" />
        </mxCell>
        <mxCell id="LkaJZbjGnA7sSVF9E5AU-288" value="&lt;font style=&quot;font-size: 18px;&quot;&gt;Сага для получения Кредита&lt;/font&gt;" style="text;html=1;strokeColor=none;fillColor=none;align=center;verticalAlign=middle;whiteSpace=wrap;rounded=0;" parent="1" vertex="1">
          <mxGeometry x="10" y="378" width="260" height="30" as="geometry" />
        </mxCell>
        <mxCell id="LkaJZbjGnA7sSVF9E5AU-289" value="" style="rounded=1;whiteSpace=wrap;html=1;fillColor=#cdeb8b;strokeColor=#36393d;" parent="1" vertex="1">
          <mxGeometry x="-260" y="438" width="390" height="90" as="geometry" />
        </mxCell>
        <mxCell id="LkaJZbjGnA7sSVF9E5AU-290" value="" style="rounded=1;whiteSpace=wrap;html=1;fillColor=#FA7D96;fontColor=#000000;strokeColor=#C73500;" parent="1" vertex="1">
          <mxGeometry x="148.5" y="438" width="390" height="90" as="geometry" />
        </mxCell>
        <mxCell id="LkaJZbjGnA7sSVF9E5AU-291" value="&lt;div style=&quot;font-size: 16px;&quot; align=&quot;left&quot;&gt;&lt;font style=&quot;font-size: 16px;&quot;&gt;Создать кредит аккаунт, подготовить &lt;span class=&quot;HwtZe&quot; lang=&quot;ru&quot;&gt;баланс пользователя&lt;/span&gt;&amp;nbsp; (Credit Service)&lt;br&gt;&lt;span class=&quot;HwtZe&quot; lang=&quot;ru&quot;&gt;&lt;/span&gt;&lt;/font&gt;&lt;/div&gt;" style="text;html=1;strokeColor=none;fillColor=none;align=center;verticalAlign=middle;whiteSpace=wrap;rounded=0;" parent="1" vertex="1">
          <mxGeometry x="-230" y="453" width="320" height="60" as="geometry" />
        </mxCell>
        <mxCell id="LkaJZbjGnA7sSVF9E5AU-292" value="&lt;div style=&quot;font-size: 16px;&quot; align=&quot;center&quot;&gt;&lt;font style=&quot;font-size: 16px;&quot;&gt;Удалить аккаунт (Credit Service)&lt;br&gt;&lt;span class=&quot;HwtZe&quot; lang=&quot;ru&quot;&gt;&lt;/span&gt;&lt;/font&gt;&lt;/div&gt;" style="text;html=1;strokeColor=none;fillColor=none;align=center;verticalAlign=middle;whiteSpace=wrap;rounded=0;" parent="1" vertex="1">
          <mxGeometry x="170" y="453" width="320" height="60" as="geometry" />
        </mxCell>
        <mxCell id="LkaJZbjGnA7sSVF9E5AU-293" value="" style="rounded=1;whiteSpace=wrap;html=1;fillColor=#cdeb8b;strokeColor=#36393d;" parent="1" vertex="1">
          <mxGeometry x="-261.5" y="548" width="390" height="100" as="geometry" />
        </mxCell>
        <mxCell id="LkaJZbjGnA7sSVF9E5AU-294" value="&lt;div style=&quot;font-size: 16px;&quot; align=&quot;left&quot;&gt;&lt;font style=&quot;font-size: 16px;&quot;&gt;Отправить кредитный запрос в Operation Service &lt;font style=&quot;font-size: 16px;&quot;&gt;(Credit Service)&lt;/font&gt;&lt;/font&gt;&lt;/div&gt;" style="text;html=1;strokeColor=none;fillColor=none;align=center;verticalAlign=middle;whiteSpace=wrap;rounded=0;" parent="1" vertex="1">
          <mxGeometry x="-231.5" y="568" width="320" height="60" as="geometry" />
        </mxCell>
        <mxCell id="LkaJZbjGnA7sSVF9E5AU-295" value="" style="rounded=1;whiteSpace=wrap;html=1;fillColor=#ffff88;strokeColor=#36393d;" parent="1" vertex="1">
          <mxGeometry x="-261.5" y="668" width="800" height="90" as="geometry" />
        </mxCell>
        <mxCell id="LkaJZbjGnA7sSVF9E5AU-296" value="&lt;div style=&quot;font-size: 16px;&quot; align=&quot;left&quot;&gt;&lt;font style=&quot;font-size: 16px;&quot;&gt;Сохранения кредитного аккаунта в Operation Service (OperationService)&lt;br&gt;&lt;span class=&quot;HwtZe&quot; lang=&quot;ru&quot;&gt;&lt;/span&gt;&lt;/font&gt;&lt;/div&gt;" style="text;html=1;strokeColor=none;fillColor=none;align=center;verticalAlign=middle;whiteSpace=wrap;rounded=0;" parent="1" vertex="1">
          <mxGeometry x="-235" y="683" width="750" height="60" as="geometry" />
        </mxCell>
        <mxCell id="LkaJZbjGnA7sSVF9E5AU-297" value="" style="rounded=1;whiteSpace=wrap;html=1;fillColor=#e1d5e7;strokeColor=#9673a6;" parent="1" vertex="1">
          <mxGeometry x="-260" y="768" width="800" height="90" as="geometry" />
        </mxCell>
        <mxCell id="LkaJZbjGnA7sSVF9E5AU-298" value="&lt;div style=&quot;font-size: 16px;&quot; align=&quot;left&quot;&gt;&lt;font style=&quot;font-size: 16px;&quot;&gt;Подтверждение сохранение &lt;/font&gt;&lt;font style=&quot;font-size: 16px;&quot;&gt;кредитного аккаунта (Operation Service)&lt;br&gt;&lt;/font&gt;&lt;/div&gt;" style="text;html=1;strokeColor=none;fillColor=none;align=center;verticalAlign=middle;whiteSpace=wrap;rounded=0;" parent="1" vertex="1">
          <mxGeometry x="-220" y="783" width="750" height="60" as="geometry" />
        </mxCell>
        <mxCell id="LkaJZbjGnA7sSVF9E5AU-299" value="" style="rounded=0;whiteSpace=wrap;html=1;" parent="1" vertex="1">
          <mxGeometry x="622" y="340" width="840" height="640" as="geometry" />
        </mxCell>
        <mxCell id="LkaJZbjGnA7sSVF9E5AU-300" value="" style="rounded=1;whiteSpace=wrap;html=1;fillColor=#f9f7ed;strokeColor=#36393d;" parent="1" vertex="1">
          <mxGeometry x="647" y="365" width="790" height="50" as="geometry" />
        </mxCell>
        <mxCell id="LkaJZbjGnA7sSVF9E5AU-301" value="&lt;font style=&quot;font-size: 18px;&quot;&gt;Сага для оплаты Кредита&lt;/font&gt;" style="text;html=1;strokeColor=none;fillColor=none;align=center;verticalAlign=middle;whiteSpace=wrap;rounded=0;" parent="1" vertex="1">
          <mxGeometry x="912" y="375" width="260" height="30" as="geometry" />
        </mxCell>
        <mxCell id="LkaJZbjGnA7sSVF9E5AU-302" value="" style="rounded=1;whiteSpace=wrap;html=1;fillColor=#cdeb8b;strokeColor=#36393d;" parent="1" vertex="1">
          <mxGeometry x="642" y="435" width="390" height="90" as="geometry" />
        </mxCell>
        <mxCell id="LkaJZbjGnA7sSVF9E5AU-303" value="" style="rounded=1;whiteSpace=wrap;html=1;fillColor=#FA7D96;fontColor=#000000;strokeColor=#C73500;" parent="1" vertex="1">
          <mxGeometry x="1050.5" y="435" width="390" height="90" as="geometry" />
        </mxCell>
        <mxCell id="LkaJZbjGnA7sSVF9E5AU-304" value="&lt;div style=&quot;font-size: 16px;&quot; align=&quot;left&quot;&gt;&lt;font style=&quot;font-size: 16px;&quot;&gt;Сохранить оплату и подготовит запрос на оплату&amp;nbsp; (Credit Service)&lt;br&gt;&lt;span class=&quot;HwtZe&quot; lang=&quot;ru&quot;&gt;&lt;/span&gt;&lt;/font&gt;&lt;/div&gt;" style="text;html=1;strokeColor=none;fillColor=none;align=center;verticalAlign=middle;whiteSpace=wrap;rounded=0;" parent="1" vertex="1">
          <mxGeometry x="672" y="450" width="320" height="60" as="geometry" />
        </mxCell>
        <mxCell id="LkaJZbjGnA7sSVF9E5AU-305" value="&lt;div style=&quot;font-size: 16px;&quot; align=&quot;center&quot;&gt;&lt;font style=&quot;font-size: 16px;&quot;&gt;Удалить оплату (Credit Service)&lt;br&gt;&lt;span class=&quot;HwtZe&quot; lang=&quot;ru&quot;&gt;&lt;/span&gt;&lt;/font&gt;&lt;/div&gt;" style="text;html=1;strokeColor=none;fillColor=none;align=center;verticalAlign=middle;whiteSpace=wrap;rounded=0;" parent="1" vertex="1">
          <mxGeometry x="1072" y="450" width="320" height="60" as="geometry" />
        </mxCell>
        <mxCell id="LkaJZbjGnA7sSVF9E5AU-306" value="" style="rounded=1;whiteSpace=wrap;html=1;fillColor=#cdeb8b;strokeColor=#36393d;" parent="1" vertex="1">
          <mxGeometry x="640.5" y="545" width="390" height="100" as="geometry" />
        </mxCell>
        <mxCell id="LkaJZbjGnA7sSVF9E5AU-307" value="&lt;div style=&quot;font-size: 16px;&quot; align=&quot;left&quot;&gt;&lt;font style=&quot;font-size: 16px;&quot;&gt;Отправить запрос на оплату в Operation Service &lt;font style=&quot;font-size: 16px;&quot;&gt;(Credit Service)&lt;/font&gt;&lt;/font&gt;&lt;/div&gt;" style="text;html=1;strokeColor=none;fillColor=none;align=center;verticalAlign=middle;whiteSpace=wrap;rounded=0;" parent="1" vertex="1">
          <mxGeometry x="670.5" y="565" width="320" height="60" as="geometry" />
        </mxCell>
        <mxCell id="LkaJZbjGnA7sSVF9E5AU-308" value="" style="rounded=1;whiteSpace=wrap;html=1;fillColor=#ffff88;strokeColor=#36393d;" parent="1" vertex="1">
          <mxGeometry x="645.5" y="768" width="800" height="90" as="geometry" />
        </mxCell>
        <mxCell id="LkaJZbjGnA7sSVF9E5AU-309" value="&lt;div style=&quot;font-size: 16px;&quot; align=&quot;left&quot;&gt;&lt;font style=&quot;font-size: 16px;&quot;&gt;Сохранения оплаты в Operation Service (OperationService)&lt;br&gt;&lt;span class=&quot;HwtZe&quot; lang=&quot;ru&quot;&gt;&lt;/span&gt;&lt;/font&gt;&lt;/div&gt;" style="text;html=1;strokeColor=none;fillColor=none;align=center;verticalAlign=middle;whiteSpace=wrap;rounded=0;" parent="1" vertex="1">
          <mxGeometry x="662" y="777.5" width="750" height="60" as="geometry" />
        </mxCell>
        <mxCell id="LkaJZbjGnA7sSVF9E5AU-310" value="" style="rounded=1;whiteSpace=wrap;html=1;fillColor=#e1d5e7;strokeColor=#9673a6;" parent="1" vertex="1">
          <mxGeometry x="647" y="870" width="800" height="90" as="geometry" />
        </mxCell>
        <mxCell id="LkaJZbjGnA7sSVF9E5AU-311" value="&lt;div style=&quot;font-size: 16px;&quot; align=&quot;left&quot;&gt;&lt;font style=&quot;font-size: 16px;&quot;&gt;Подтверждение сохранение и отправка изменения &lt;/font&gt;&lt;font style=&quot;font-size: 16px;&quot;&gt;кредитного аккаунта (Operation Service)&lt;br&gt;&lt;/font&gt;&lt;/div&gt;" style="text;html=1;strokeColor=none;fillColor=none;align=center;verticalAlign=middle;whiteSpace=wrap;rounded=0;" parent="1" vertex="1">
          <mxGeometry x="672" y="875" width="750" height="60" as="geometry" />
        </mxCell>
        <mxCell id="LkaJZbjGnA7sSVF9E5AU-314" value="" style="rounded=1;whiteSpace=wrap;html=1;fillColor=#cdeb8b;strokeColor=#36393d;" parent="1" vertex="1">
          <mxGeometry x="640.5" y="660" width="390" height="100" as="geometry" />
        </mxCell>
        <mxCell id="LkaJZbjGnA7sSVF9E5AU-315" value="&lt;font style=&quot;font-size: 16px;&quot;&gt;Вычитать оплату с кредита&lt;/font&gt;&lt;font style=&quot;font-size: 16px;&quot;&gt; (Operation Service)&lt;/font&gt; " style="text;html=1;strokeColor=none;fillColor=none;align=center;verticalAlign=middle;whiteSpace=wrap;rounded=0;" parent="1" vertex="1">
          <mxGeometry x="670" y="680" width="320" height="60" as="geometry" />
        </mxCell>
      </root>
    </mxGraphModel>
  </diagram>
</mxfile>
